<?xml version="1.0" encoding="UTF-8"?>
<svg width="512" height="512" viewBox="0 0 512 512" fill="none" xmlns="http://www.w3.org/2000/svg">
  <rect width="512" height="512" rx="256" fill="#0058A3"/>
  <path d="M394 162.5C394 166.642 390.642 170 386.5 170H125.5C121.358 170 118 166.642 118 162.5V162.5C118 158.358 121.358 155 125.5 155H386.5C390.642 155 394 158.358 394 162.5V162.5Z" fill="white"/>
  <path d="M394 256C394 260.142 390.642 263.5 386.5 263.5H125.5C121.358 263.5 118 260.142 118 256V256C118 251.858 121.358 248.5 125.5 248.5H386.5C390.642 248.5 394 251.858 394 256V256Z" fill="white"/>
  <path d="M394 349.5C394 353.642 390.642 357 386.5 357H125.5C121.358 357 118 353.642 118 349.5V349.5C118 345.358 121.358 342 125.5 342H386.5C390.642 342 394 345.358 394 349.5V349.5Z" fill="white"/>
</svg>