<?xml version="1.0" encoding="UTF-8"?>
<svg width="512" height="512" version="1.1" viewBox="0 0 135.47 135.47" xmlns="http://www.w3.org/2000/svg">
 <g transform="translate(0 -161.53)" fill="#ffffff">
  <path d="m67.733 187.01c-23.029 0-41.804 18.775-41.804 41.804 0 23.029 18.775 41.804 41.804 41.804 23.029 0 41.804-18.775 41.804-41.804 0-23.029-18.775-41.804-41.804-41.804zm0 4.8109c20.431 0 36.993 16.562 36.993 36.993s-16.562 36.993-36.993 36.993-36.993-16.562-36.993-36.993 16.562-36.993 36.993-36.993z" style="paint-order:normal"/>
  <path d="m82.056 212.53-4.0584 4.0584 11.997 11.997h-39.486v5.7361h39.486l-11.997 11.997 4.0584 4.0584 18.558-18.558z" style="paint-order:normal"/>
 </g>
</svg>